<svg width="70" height="133" viewBox="0 0 70 133" fill="none" xmlns="http://www.w3.org/2000/svg">
<path d="M53.5858 132.414C54.3668 133.195 55.6332 133.195 56.4142 132.414L69.1421 119.686C69.9232 118.905 69.9232 117.639 69.1421 116.858C68.3611 116.077 67.0948 116.077 66.3137 116.858L55 128.172L43.6863 116.858C42.9052 116.077 41.6389 116.077 40.8579 116.858C40.0768 117.639 40.0768 118.905 40.8579 119.686L53.5858 132.414ZM53 2L53 131L57 131L57 2L53 2Z" fill="#83DB31"/>
<path d="M16.4142 0.585786C15.6332 -0.195262 14.3668 -0.195262 13.5858 0.585787L0.857865 13.3137C0.0768161 14.0948 0.0768162 15.3611 0.857865 16.1421C1.63891 16.9232 2.90524 16.9232 3.68629 16.1421L15 4.82843L26.3137 16.1421C27.0948 16.9232 28.3611 16.9232 29.1421 16.1421C29.9232 15.3611 29.9232 14.0948 29.1421 13.3137L16.4142 0.585786ZM13 2L13 131L17 131L17 2L13 2Z" fill="#83DB31"/>
</svg>