<svg width="176" height="115" viewBox="0 0 176 115" fill="none" xmlns="http://www.w3.org/2000/svg">
<path fill-rule="evenodd" clip-rule="evenodd" d="M137.199 35.8949C147.598 36.1665 157.357 40.3949 164.667 47.7904C171.972 55.2497 175.995 65.0553 176 75.4156C175.995 85.9727 171.848 95.9063 164.329 103.398C156.771 110.873 146.771 114.995 136.136 115H39.8695C29.2294 114.995 19.2287 110.873 11.6875 103.408C4.15181 95.906 0.0055 85.9727 0 75.4207C0.0055 64.8581 4.15181 54.9193 11.6713 47.4331C19.2287 39.9578 29.2349 35.8417 39.8643 35.8362C42.0234 35.8362 44.2633 36.0444 46.7287 36.4655L51.0472 37.2121L51.9066 32.9677C53.7543 23.8019 58.7922 15.4413 66.0969 9.43236C73.6058 3.26845 82.7258 0.00545993 92.4798 0C102.137 0.00545993 111.177 3.20464 118.637 9.2457C125.899 15.1428 130.974 23.3593 132.94 32.3917L133.681 35.8041L137.199 35.8949ZM86.8087 34.7603C88.3997 32.9719 91.1947 32.9719 92.7857 34.7603L112.003 56.3609C114.297 58.9401 112.466 63.0196 109.014 63.0196H104.037C104.104 63.3091 104.139 63.6106 104.139 63.9203V88.1588C104.139 90.3679 102.348 92.1588 100.139 92.1588H79.4546C77.2454 92.1588 75.4546 90.3679 75.4546 88.1588V63.9203C75.4546 63.6106 75.4898 63.3091 75.5564 63.0196H70.5802C67.128 63.0196 65.2971 58.9401 67.5917 56.3609L86.8087 34.7603Z" fill="#CBCBCB"/>
</svg>
