<svg width="120" height="48" viewBox="0 0 120 48" fill="none" xmlns="http://www.w3.org/2000/svg">
<g clip-path="url(#clip0_424:52)">
<path d="M114.233 36.5664C111.902 36.5664 109.816 37.9957 108.957 40.0205H11.0429C10.184 37.9957 8.09816 36.5664 5.76687 36.5664C2.57669 36.5664 0 39.0676 0 42.2835C0 45.3803 2.57669 48.0006 5.76687 48.0006C8.09816 48.0006 10.184 46.5714 11.0429 44.5465H108.957C109.816 46.5714 111.902 48.0006 114.233 48.0006C117.423 48.0006 120 45.4994 120 42.2835C120 39.0676 117.423 36.5664 114.233 36.5664Z" fill="white"/>
<path d="M19.1411 30.7295H3.55828C2.20859 30.7295 1.22699 30.6104 0.736196 30.3722C0.245399 30.2531 0 29.8958 0 29.5385V2.14392C0 1.42928 0.368098 0.833747 0.981595 0.595533C1.59509 0.119107 2.82209 0 4.53988 0H20.2454C21.3497 0 22.454 0.952854 22.454 2.97767C22.454 5.00248 22.454 5.95534 21.9632 6.90819C21.4724 7.86104 20.4908 8.09926 20.1227 8.09926C18.2822 8.09926 16.1963 8.33747 11.7791 7.98015V12.268C15.9509 12.1489 18.8957 11.4342 19.8773 11.9107C20.6135 12.1489 21.1043 12.268 21.1043 14.0546C21.1043 15.8412 20.9816 17.2705 20.6135 18.2233C20.3681 19.1762 19.1411 18.938 18.6503 18.938L11.7791 19.0571L11.6564 23.1067C14.6012 22.8685 16.9325 22.3921 18.6503 22.273C20.7362 22.0347 22.454 23.7022 22.454 25.727C22.454 27.3945 22.3313 28.3474 22.2086 29.3002C21.9632 30.6104 19.6319 30.7295 19.1411 30.7295Z" fill="white"/>
<path d="M50.4294 30.73C47.4846 30.73 45.276 30.4917 43.9263 29.8962C43.1901 29.658 42.822 29.3007 42.822 29.0625C42.822 28.3478 43.0674 27.5141 43.4355 26.5612C43.8036 25.6084 44.2944 25.1319 44.5398 25.1319C44.6625 25.1319 45.276 25.3702 46.3803 25.7275C47.3619 26.0848 48.2208 26.323 48.957 26.323C49.6932 26.323 50.184 26.323 50.3067 26.2039C50.5521 26.0848 50.6748 25.9657 50.6748 25.7275C50.6748 25.4893 50.5521 25.2511 50.184 25.1319C49.8159 25.0128 49.3251 24.8937 48.8343 24.7746C48.3435 24.7746 47.73 24.6555 47.1165 24.4173C46.503 24.2982 45.8895 24.06 45.3987 23.8218C44.9079 23.5836 44.4171 23.2262 44.049 22.6307C43.6809 22.0352 43.5582 21.4396 43.5582 20.8441C43.5582 20.2486 43.5582 19.653 43.5582 19.4148C43.5582 19.1766 43.6809 18.7002 44.049 18.1047C44.2944 17.5091 44.6625 17.0327 45.1533 16.6754C45.6441 16.3181 46.3803 15.9607 47.3619 15.7225C48.3435 15.4843 49.4478 15.2461 50.6748 15.2461C51.9018 15.2461 52.8834 15.2461 53.7423 15.3652C54.6012 15.4843 55.2147 15.4843 55.7055 15.7225C56.1962 15.8416 56.5643 15.9607 56.9324 16.0798C57.4232 16.3181 57.6686 16.6754 57.6686 16.9136C57.6686 17.6282 57.4232 18.3429 56.9324 19.2957C56.4416 20.1295 56.0735 20.6059 55.7055 20.6059C55.4601 20.6059 54.7239 20.4868 53.7423 20.1295C52.7607 19.7721 52.0245 19.653 51.5337 19.653C50.7975 19.653 50.4294 19.8913 50.4294 20.2486C50.4294 20.4868 50.6748 20.725 51.1656 20.8441C51.6564 20.9632 52.2699 21.0823 53.0061 21.2014C53.7423 21.3205 54.4785 21.5587 55.2147 21.797C55.9508 22.0352 56.5643 22.5116 57.0551 23.1071C57.5459 23.8218 57.7913 24.6555 57.7913 25.6084C57.914 29.0625 55.46 30.73 50.4294 30.73Z" fill="white"/>
<path d="M40.6134 17.3899C40.6134 16.9135 40.368 16.5562 40.2453 16.1989C39.9999 15.8416 39.7545 15.6033 39.3864 15.3651C39.0183 15.1269 38.5275 15.0078 37.7913 15.0078C37.4232 15.0078 37.0551 15.0078 36.687 15.1269C36.3189 15.246 35.9508 15.3651 35.7054 15.6033C35.46 15.8416 35.2146 16.0798 34.9692 16.4371C34.8465 16.7944 34.7238 17.2708 34.7238 17.7473C34.6011 17.3899 34.4784 17.1517 34.233 16.7944C33.9876 16.4371 33.7422 16.1989 33.3742 15.9607C33.0061 15.7225 32.638 15.4842 32.1472 15.3651C31.6564 15.246 31.1656 15.1269 30.4294 15.1269C29.6932 15.1269 28.957 15.246 28.3435 15.3651C27.6073 15.6033 26.9938 15.8416 26.3803 16.318C25.7668 16.7944 25.3987 17.2708 25.0306 17.9855C24.6625 18.7001 24.5398 19.5339 24.5398 20.6058V25.1319C24.5398 26.2038 24.6625 27.0376 25.0306 27.7522C25.3987 28.4669 25.8895 29.0624 26.3803 29.4197C26.9938 29.8962 27.6073 30.1344 28.3435 30.3726C29.0797 30.6108 29.8159 30.6108 30.4294 30.6108C31.0429 30.6108 31.6564 30.4917 32.1472 30.3726C32.3926 30.2535 32.5153 30.1344 32.7607 30.0153C33.1288 29.8962 33.3742 29.3006 33.2515 28.4669C33.2515 27.6331 32.8834 26.9185 32.5153 26.9185C32.3926 26.9185 32.2699 27.0376 32.1472 27.0376C31.7791 27.0376 31.411 26.9185 31.1656 26.7994C30.9202 26.6803 30.7975 26.4421 30.6748 26.323C30.7975 26.2038 30.6748 25.8465 30.6748 25.6083C30.6748 25.3701 30.6748 25.0128 30.6748 24.7746V20.9631C30.6748 20.7249 30.6748 20.3676 30.6748 20.1294C30.6748 19.8912 30.7975 19.653 30.9202 19.4148C31.0429 19.1765 31.1656 19.0574 31.411 18.9383C31.6564 18.8192 31.9018 18.7001 32.3926 18.7001C32.8834 18.7001 33.2514 18.8192 33.6195 19.0574C33.9876 19.2957 34.233 19.653 34.3557 20.0103C34.4784 20.3676 34.7238 20.7249 34.7238 21.2014L34.8465 22.3924V27.9904C34.8465 28.2287 34.8465 28.4669 34.9692 28.7051C35.0919 28.9433 35.0919 29.3006 35.3373 29.5388C35.5827 29.777 35.8281 30.0153 36.1962 30.2535C36.5643 30.4917 37.1778 30.4917 37.914 30.4917C38.6502 30.4917 39.141 30.3726 39.5091 30.1344C39.8772 29.8961 40.2453 29.6579 40.368 29.3006C40.6134 28.9433 40.7361 28.586 40.7361 28.1096C40.7361 27.6331 40.7361 27.2758 40.7361 26.7994V18.2237C40.7361 18.2237 40.7361 17.7473 40.6134 17.3899Z" fill="white"/>
<path d="M75.8282 17.3899C75.8282 16.9135 75.5829 16.5562 75.4602 16.1989C75.2148 15.8416 74.9694 15.6033 74.6013 15.3651C74.2332 15.1269 73.7424 15.0078 73.0062 15.0078C72.6381 15.0078 72.27 15.0078 71.9019 15.1269C71.5338 15.246 71.1657 15.3651 70.9203 15.6033C70.6749 15.8416 70.4295 16.0798 70.1841 16.4371C70.0614 16.7944 69.9387 17.2708 69.9387 17.7473C69.816 17.3899 69.6933 17.1517 69.4479 16.7944C69.2025 16.4371 68.9571 16.1989 68.589 15.9607C68.2209 15.7225 67.8528 15.4842 67.362 15.3651C66.8712 15.246 66.3804 15.1269 65.6442 15.1269C64.908 15.1269 64.1718 15.246 63.5583 15.3651C62.8221 15.6033 62.2086 15.8416 61.5951 16.318C60.9816 16.7944 60.6135 17.2708 60.2454 17.9855C59.8773 18.7001 59.7546 19.5339 59.7546 20.6058V25.1319C59.7546 26.2038 59.8773 27.0376 60.2454 27.7522C60.6135 28.4669 61.1043 29.0624 61.5951 29.4197C62.2086 29.8962 62.8221 30.1344 63.5583 30.3726C64.2945 30.6108 65.0307 30.6108 65.6442 30.6108C66.2577 30.6108 66.8712 30.4917 67.362 30.3726C67.6074 30.2535 67.7301 30.1344 67.9755 30.0153C68.3436 29.8962 68.589 29.3006 68.4663 28.4669C68.4663 27.6331 68.0982 26.9185 67.7301 26.9185C67.6074 26.9185 67.4847 27.0376 67.362 27.0376C66.9939 27.0376 66.6258 26.9185 66.3804 26.7994C66.135 26.6803 66.0123 26.4421 65.8896 26.323C65.7669 26.0847 65.6442 25.8465 65.6442 25.6083C65.6442 25.3701 65.6442 25.0128 65.6442 24.7746V20.9631C65.6442 20.7249 65.6442 20.3676 65.6442 20.1294C65.6442 19.8912 65.7669 19.653 65.8896 19.4148C66.0123 19.1765 66.135 19.0574 66.3804 18.9383C66.6258 18.8192 66.8712 18.7001 67.362 18.7001C67.8528 18.7001 68.2209 18.8192 68.589 19.0574C68.9571 19.2957 69.2025 19.653 69.3252 20.0103C69.4479 20.3676 69.6933 20.7249 69.6933 21.2014L69.816 22.3924V27.9904C69.816 28.2287 69.816 28.4669 69.9387 28.7051C69.9387 29.0624 70.0614 29.3006 70.3068 29.5388C70.5522 29.777 70.7976 30.0153 71.1657 30.2535C71.5338 30.4917 72.1473 30.4917 72.8835 30.4917C73.6197 30.4917 74.1105 30.3726 74.4786 30.1344C74.8467 29.8961 75.2148 29.6579 75.3375 29.3006C75.5829 28.9433 75.7056 28.586 75.7056 28.1096C75.7056 27.6331 75.7056 27.2758 75.7056 26.7994V18.2237C75.9509 18.2237 75.9509 17.7473 75.8282 17.3899Z" fill="white"/>
<path d="M101.35 30.1335C101.595 29.8953 101.841 29.4189 101.841 29.0615V7.97965V7.14591C101.841 5.71663 101.104 5.12109 99.5093 5.12109C98.405 5.12109 97.3007 5.47841 96.3191 6.07395C95.4602 6.55037 95.0921 7.14591 94.8467 7.74144V29.0615C94.8467 29.0615 94.8467 30.9673 97.4234 30.8481C99.632 30.729 100.491 30.8481 101.35 30.1335Z" fill="white"/>
<path d="M85.3987 15.4844C85.6441 15.2462 85.7669 15.2462 86.2576 15.008C86.6257 14.8889 87.1165 14.7698 87.6073 14.7698C88.2208 14.7698 88.8343 14.8889 89.4478 15.008C90.0613 15.2462 90.5521 15.4844 91.0429 15.9609C91.5337 16.4373 91.9018 17.0328 92.2699 17.7475C92.5153 18.4621 92.7607 19.415 92.7607 20.3678V25.013C92.7607 26.0849 92.638 26.9187 92.2699 27.6333C92.0245 28.348 91.5337 28.9435 91.0429 29.4199C90.5521 29.8964 90.0613 30.1346 89.4478 30.3728C88.8343 30.611 88.2208 30.611 87.6073 30.611C87.1165 30.611 86.6257 30.4919 86.2576 30.3728C85.8896 30.2537 85.5214 30.0155 85.276 29.7773C85.0307 29.539 84.7853 29.1817 84.5399 28.9435C84.4172 28.5862 84.1718 28.348 84.1718 27.9907C84.1718 28.2289 84.1718 28.4671 84.1718 28.8244C84.1718 29.1817 84.0491 29.4199 83.9264 29.6581C83.8037 29.8964 83.5583 30.1346 83.1902 30.3728C82.8221 30.611 82.3313 30.611 81.7178 30.611C81.1043 30.611 80.6135 30.4919 80.3681 30.2537C80 30.0155 79.7546 29.7773 79.6319 29.4199C79.5092 29.0626 79.3865 28.7053 79.3865 28.2289C79.3865 27.7524 79.3865 27.3951 79.3865 26.9187V14.2934V12.0304V9.52911V9.41001V9.2909V7.14698C79.3865 5.95591 80.2454 4.88395 81.4724 4.64574C83.0675 4.40753 84.4172 5.59859 84.4172 7.02787V9.2909V9.41001V9.52911V12.0304V14.2934V16.08V17.5093V21.7971V22.1544V25.4894C84.4172 25.8467 84.5399 26.5614 85.276 26.9187C85.3987 26.9187 85.5215 27.0378 85.7668 27.0378H86.6257C86.7484 27.0378 86.9938 26.9187 87.2392 26.9187C87.8527 26.5614 88.0981 25.7276 88.0981 25.6085C88.0981 25.4894 88.0981 25.4894 88.0981 25.4894C88.0981 25.4894 88.0981 24.8939 88.0981 24.6557V20.8442C88.0981 20.606 88.0981 20.3678 88.0981 20.1296C88.0981 20.1296 87.9754 18.8194 86.3803 18.8194C86.0122 18.8194 85.8895 18.7003 85.5214 19.0576C85.5214 19.0576 85.3987 17.1519 85.3987 16.4373C85.0306 15.7227 85.3987 15.4844 85.3987 15.4844Z" fill="white"/>
<path d="M117.3 25.0127C117.3 25.0127 116.687 25.2509 115.583 25.6082C114.478 26.0847 113.619 26.2038 113.006 26.2038C111.902 26.2038 111.288 25.6082 111.288 24.5363V22.3924V22.2733V21.5586V20.6058C111.288 20.0102 111.411 19.5338 111.534 19.2956C111.534 19.1765 111.534 19.1765 111.656 19.0574C112.024 18.3427 112.515 17.7472 113.251 17.7472C114.233 17.7472 114.969 18.7001 114.969 19.772C114.969 20.6058 114.601 21.2013 114.11 21.5586C113.865 21.7968 112.515 22.035 112.147 22.1541C112.024 22.1541 112.024 22.2733 112.024 22.2733L112.27 24.0599C112.27 24.179 112.27 24.2981 112.515 24.2981C117.546 24.2981 120.123 22.6306 120.123 19.4147C120.123 16.3179 117.791 14.7695 113.251 14.7695C111.779 14.7695 110.552 14.8886 109.57 15.1269C108.466 15.3651 107.607 15.8415 106.748 16.437C105.031 17.6281 104.172 19.772 104.172 22.9879C104.172 23.8216 104.294 24.6554 104.417 25.37C104.54 25.8465 104.662 26.3229 104.908 26.7993C105.153 27.2757 105.399 27.6331 105.889 28.1095C106.38 28.5859 106.871 28.9432 107.485 29.3006C108.098 29.6579 108.834 29.8961 109.816 30.1343C110.797 30.3725 111.902 30.4916 113.251 30.4916C114.601 30.4916 116.073 30.3725 117.546 30.0152C119.018 29.6579 119.754 29.1814 119.754 28.4668C119.754 27.9904 119.509 27.2757 118.896 26.3229C118.037 25.4891 117.546 25.0127 117.3 25.0127Z" fill="white"/>
</g>
<defs>
<clipPath id="clip0_424:52">
<rect width="120" height="48" fill="white"/>
</clipPath>
</defs>
</svg>
