<svg width="148" height="148" viewBox="0 0 148 148" fill="none" xmlns="http://www.w3.org/2000/svg">
<path d="M104.633 28.3643H17.2518C14.8297 28.3643 12.8589 30.3345 12.8589 32.7566V52.2758C12.8589 54.6978 14.8294 56.6684 17.2518 56.6684H80.5168C81.7832 56.6684 82.8094 55.6419 82.8094 54.3758C82.8094 53.1097 81.7832 52.0833 80.5168 52.0833H17.4443V32.9494H104.441V52.0833H89.6801C88.4137 52.0833 87.3876 53.1097 87.3876 54.3758C87.3876 55.6419 88.4137 56.6684 89.6801 56.6684H104.634C107.056 56.6684 109.026 54.6981 109.026 52.2758V32.7566C109.026 30.3348 107.056 28.3643 104.633 28.3643Z" fill="white"/>
<path d="M53.6881 62.6426H15.1514C13.8851 62.6426 12.8589 63.669 12.8589 64.9351V83.0643C12.8589 84.3304 13.8851 85.3568 15.1514 85.3568H53.6881C54.9545 85.3568 55.9807 84.3304 55.9807 83.0643V64.9351H55.981C55.9807 63.669 54.9548 62.6426 53.6881 62.6426ZM17.444 80.7714V67.2271H51.3956V80.7714H17.444Z" fill="white"/>
<path d="M53.6881 93.3936H15.1514C13.8851 93.3936 12.8589 94.42 12.8589 95.6861V113.815C12.8589 115.081 13.8851 116.108 15.1514 116.108H36.3259C37.5922 116.108 38.6184 115.081 38.6184 113.815C38.6184 112.549 37.5922 111.523 36.3259 111.523H17.444V97.9784H51.3956V111.523H45.4961C44.2297 111.523 43.2035 112.549 43.2035 113.815C43.2035 115.081 44.2297 116.108 45.4961 116.108H53.6884C54.9548 116.108 55.981 115.081 55.981 113.815V95.6861C55.9807 94.42 54.9548 93.3936 53.6881 93.3936Z" fill="white"/>
<path d="M145.54 65.357L133.265 53.0814C131.679 51.4953 129.57 50.622 127.327 50.622C125.083 50.622 122.975 51.4953 121.388 53.0816L120.014 54.4553V32.1451C120.014 24.6665 113.931 18.5826 106.452 18.5826H33.7275C32.4611 18.5826 31.435 19.6091 31.435 20.8752C31.435 22.1413 32.4611 23.1677 33.7275 23.1677H106.452C111.402 23.1677 115.429 27.1949 115.429 32.1451V59.0404L114.568 59.9018L106.926 67.5437V64.9352C106.926 63.6691 105.899 62.6427 104.633 62.6427H66.0965C64.8301 62.6427 63.8039 63.6691 63.8039 64.9352V83.0644C63.8039 84.3305 64.8301 85.3569 66.0965 85.3569H89.1128L81.0765 93.3931H66.097C64.8307 93.3931 63.8045 94.4196 63.8045 95.6857V113.815C63.8045 115.081 64.8307 116.107 66.097 116.107H76.6082L76.4926 119.766C76.4726 120.399 76.7155 121.012 77.1626 121.46C77.5933 121.89 78.1767 122.131 78.784 122.131C78.8077 122.131 78.8323 122.131 78.8565 122.13L100.449 121.448C100.462 121.447 100.475 121.444 100.487 121.443C100.578 121.439 100.669 121.43 100.759 121.415C100.771 121.413 100.783 121.412 100.795 121.41C100.892 121.392 100.989 121.366 101.084 121.335C101.103 121.329 101.122 121.322 101.141 121.315C101.227 121.285 101.311 121.25 101.394 121.209C101.403 121.205 101.411 121.202 101.419 121.197C101.508 121.152 101.593 121.1 101.676 121.043C101.693 121.031 101.709 121.018 101.726 121.006C101.79 120.959 101.853 120.908 101.913 120.853C101.931 120.837 101.949 120.821 101.967 120.805C101.977 120.795 101.988 120.787 101.998 120.777L115.43 107.344V115.854C115.43 120.805 111.403 124.832 106.453 124.832H13.5628C8.61262 124.832 4.58511 120.804 4.58511 115.854V32.1446C4.58511 27.1944 8.61262 23.1671 13.5628 23.1671H24.5573C25.8237 23.1671 26.8499 22.1407 26.8499 20.8746C26.8499 19.6085 25.8237 18.582 24.5573 18.582H13.5628C6.08448 18.5823 0 24.6668 0 32.1448V115.854C0 123.333 6.08448 129.417 13.5628 129.417H106.452C113.93 129.417 120.014 123.333 120.014 115.854V102.76L129.904 92.8696L138.72 84.0538L145.54 77.2337C147.126 75.6476 148 73.5383 148 71.2955C148 69.0523 147.126 66.9431 145.54 65.357ZM77.1872 97.9988C77.184 98.0257 77.1832 98.0525 77.1811 98.0794C77.1791 98.1109 77.1751 98.1419 77.1742 98.1737L76.7525 111.522H68.389V97.978H77.1889C77.1878 97.9846 77.1878 97.9918 77.1872 97.9988ZM68.3887 80.7712V67.2275H102.34V72.1285L93.6973 80.7712H68.3887ZM81.1517 117.47L81.5896 103.613L95.0091 117.032L81.1517 117.47ZM116.101 100.188C116.101 100.189 116.101 100.189 116.101 100.189L100.376 115.914L82.7074 98.2456L83.6469 97.3062C83.6472 97.3059 83.6475 97.3056 83.6478 97.3053L96.2647 84.6883C96.2659 84.6871 96.2671 84.6863 96.2685 84.6851L106.254 74.6995C106.254 74.6992 106.255 74.6986 106.255 74.6983L107.373 73.5805L125.041 91.2486L116.101 100.188ZM128.283 88.0065L110.615 70.3384L116.188 64.7647L133.856 82.4328L128.283 88.0065ZM142.298 73.9916L137.099 79.1906L119.431 61.5226L124.63 56.3235C125.35 55.6034 126.307 55.2068 127.326 55.2068C128.345 55.2068 129.302 55.6034 130.022 56.3235L142.298 68.5991C143.017 69.3191 143.414 70.2765 143.414 71.2952C143.415 72.3138 143.018 73.2712 142.298 73.9916Z" fill="white"/>
</svg>
