<svg width="94" height="94" viewBox="0 0 94 94" fill="none" xmlns="http://www.w3.org/2000/svg">
<path d="M66.4562 18.0146H10.9571C9.41873 18.0146 8.16699 19.266 8.16699 20.8044V33.2017C8.16699 34.74 9.41855 35.9916 10.9571 35.9916H51.1389C51.9433 35.9916 52.595 35.3396 52.595 34.5355C52.595 33.7314 51.9433 33.0794 51.1389 33.0794H11.0793V20.9268H66.3339V33.0794H56.9589C56.1545 33.0794 55.5028 33.7314 55.5028 34.5355C55.5028 35.3396 56.1545 35.9916 56.9589 35.9916H66.4563C67.9947 35.9916 69.2462 34.7402 69.2462 33.2017V20.8044C69.246 19.2662 67.9947 18.0146 66.4562 18.0146Z" fill="#005662"/>
<path d="M34.0995 39.7871H9.62356C8.81924 39.7871 8.16748 40.4391 8.16748 41.2432V52.7576C8.16748 53.5618 8.81924 54.2137 9.62356 54.2137H34.0995C34.9039 54.2137 35.5556 53.5618 35.5556 52.7576V41.2432H35.5558C35.5556 40.4391 34.904 39.7871 34.0995 39.7871ZM11.0796 51.3014V42.6989H32.6435V51.3014H11.0796Z" fill="#005662"/>
<path d="M34.0995 59.3174H9.62356C8.81924 59.3174 8.16748 59.9693 8.16748 60.7735V72.2879C8.16748 73.0921 8.81924 73.744 9.62356 73.744H23.0722C23.8765 73.744 24.5283 73.0921 24.5283 72.2879C24.5283 71.4838 23.8765 70.8318 23.0722 70.8318H11.0796V62.2294H32.6435V70.8318H28.8965C28.0922 70.8318 27.4404 71.4838 27.4404 72.2879C27.4404 73.0921 28.0922 73.744 28.8965 73.744H34.0997C34.9041 73.744 35.5558 73.0921 35.5558 72.2879V60.7735C35.5556 59.9693 34.904 59.3174 34.0995 59.3174Z" fill="#005662"/>
<path d="M92.4378 41.5111L84.6411 33.7145C83.6339 32.7071 82.2944 32.1525 80.8696 32.1525C79.4447 32.1525 78.1056 32.7071 77.0978 33.7146L76.2254 34.5871V20.4171C76.2254 15.6672 72.3613 11.8031 67.6113 11.8031H21.4215C20.6172 11.8031 19.9655 12.455 19.9655 13.2592C19.9655 14.0633 20.6172 14.7153 21.4215 14.7153H67.6112C70.755 14.7153 73.313 17.2731 73.313 20.4171V37.4992L72.7659 38.0464L67.9122 42.9V41.2433C67.9122 40.4391 67.2605 39.7872 66.4562 39.7872H41.9802C41.1759 39.7872 40.5241 40.4391 40.5241 41.2433V52.7577C40.5241 53.5619 41.1759 54.2138 41.9802 54.2138H56.5987L51.4946 59.3179H41.9805C41.1762 59.3179 40.5245 59.9698 40.5245 60.774V72.2884C40.5245 73.0926 41.1762 73.7445 41.9805 73.7445H48.6566L48.5831 76.0684C48.5705 76.4703 48.7247 76.8597 49.0087 77.1439C49.2823 77.4175 49.6527 77.5704 50.0385 77.5704C50.0535 77.5704 50.0691 77.5702 50.0846 77.5697L63.7986 77.1362C63.8069 77.136 63.815 77.134 63.8231 77.1337C63.8807 77.1309 63.9384 77.125 63.9955 77.1155C64.003 77.1142 64.0109 77.1135 64.0182 77.1122C64.0803 77.1008 64.1416 77.0844 64.202 77.0648C64.2141 77.061 64.2259 77.0565 64.238 77.0523C64.2925 77.033 64.3463 77.0108 64.3988 76.9848C64.4043 76.982 64.4096 76.98 64.415 76.9772C64.4711 76.9488 64.5253 76.9157 64.578 76.8792C64.5886 76.8718 64.5989 76.8636 64.6096 76.8559C64.6505 76.8258 64.6904 76.7935 64.7287 76.7586C64.7399 76.7485 64.7515 76.7386 64.7625 76.7281C64.7689 76.7218 64.7759 76.7167 64.7823 76.7103L73.3138 68.1789V73.5839C73.3138 76.7279 70.7557 79.2857 67.6119 79.2857H8.61422C5.47018 79.2856 2.91216 76.7277 2.91216 73.5837V20.4168C2.91216 17.2727 5.47018 14.7149 8.61422 14.7149H15.5972C16.4015 14.7149 17.0533 14.063 17.0533 13.2588C17.0533 12.4547 16.4015 11.8027 15.5972 11.8027H8.61422C3.86446 11.8029 0 15.6674 0 20.417V73.5839C0 78.3338 3.86446 82.1979 8.61422 82.1979H67.6112C72.3611 82.1979 76.2252 78.3338 76.2252 73.5839V65.2669L82.5067 58.9854L88.1059 53.3862L92.4376 49.0545C93.445 48.0471 94 46.7074 94 45.2829C94 43.8582 93.445 42.5185 92.4378 41.5111ZM49.0243 62.2431C49.0223 62.2602 49.0217 62.2772 49.0205 62.2943C49.0192 62.3143 49.0166 62.334 49.016 62.3542L48.7482 70.8323H43.4363V62.2299H49.0254C49.0247 62.2341 49.0247 62.2387 49.0243 62.2431ZM43.4361 51.3013V42.6992H64.9999V45.812L59.5104 51.3013H43.4361ZM51.5423 74.61L51.8204 65.8087L60.3436 74.3318L51.5423 74.61ZM73.7399 63.6338C73.7397 63.634 73.7397 63.634 73.7395 63.6342L63.752 73.6215L52.5304 62.3999L53.1271 61.8032C53.1273 61.803 53.1274 61.8028 53.1276 61.8027L61.1411 53.7892C61.1419 53.7884 61.1426 53.7879 61.1435 53.7871L67.4858 47.4449C67.4859 47.4447 67.4861 47.4443 67.4863 47.4442L68.1961 46.7342L79.4177 57.9558L73.7399 63.6338ZM81.4771 55.8966L70.2555 44.675L73.7953 41.135L85.0169 52.3566L81.4771 55.8966ZM90.3783 46.9953L87.0761 50.2974L75.8545 39.0758L79.1566 35.7737C79.614 35.3163 80.2222 35.0644 80.8692 35.0644C81.5162 35.0644 82.1242 35.3163 82.5816 35.7737L90.3783 43.5703C90.8354 44.0277 91.0875 44.6357 91.0875 45.2827C91.0878 45.9297 90.8359 46.5378 90.3783 46.9953Z" fill="#005662"/>
</svg>
